<svg width="21" height="21" viewBox="0 0 21 21" fill="none" xmlns="http://www.w3.org/2000/svg">
<g id="logos:google-icon">
<path id="Vector" d="M20.4905 10.9259C20.4905 10.0873 20.4224 9.47532 20.2752 8.84071H10.6992V12.6257H16.3201C16.2068 13.5663 15.5948 14.9829 14.2349 15.9348L14.2159 16.0615L17.2436 18.407L17.4534 18.428C19.3798 16.6488 20.4905 14.0309 20.4905 10.9259Z" fill="#4285F4"/>
<path id="Vector_2" d="M10.6992 20.8984C13.453 20.8984 15.7648 19.9918 17.4534 18.428L14.2349 15.9348C13.3737 16.5354 12.2177 16.9547 10.6992 16.9547C8.00211 16.9547 5.71297 15.1755 4.89695 12.7164L4.77734 12.7266L1.62906 15.163L1.58789 15.2775C3.26508 18.6092 6.71016 20.8984 10.6992 20.8984Z" fill="#34A853"/>
<path id="Vector_3" d="M4.89695 12.7164C4.68164 12.0818 4.55703 11.4018 4.55703 10.6992C4.55703 9.99657 4.68164 9.31665 4.88562 8.68204L4.87992 8.54688L1.69219 6.07126L1.58789 6.12087C0.896641 7.50345 0.5 9.05602 0.5 10.6992C0.5 12.3424 0.896641 13.8949 1.58789 15.2775L4.89695 12.7164Z" fill="#FBBC05"/>
<path id="Vector_4" d="M10.6992 4.44367C12.6144 4.44367 13.9062 5.27094 14.6429 5.96227L17.5213 3.1518C15.7535 1.50859 13.453 0.5 10.6992 0.5C6.71016 0.5 3.26508 2.78914 1.58789 6.12086L4.88563 8.68203C5.71297 6.22289 8.00211 4.44367 10.6992 4.44367Z" fill="#EB4335"/>
</g>
</svg>
